<?xml version="1.0" encoding="utf-8"?>
<!-- Generator: Adobe Illustrator 19.0.0, SVG Export Plug-In . SVG Version: 6.00 Build 0)  -->
<svg version="1.1" id="Layer_1" xmlns="http://www.w3.org/2000/svg" xmlns:xlink="http://www.w3.org/1999/xlink" x="0px" y="0px"
	 viewBox="0 0 378 128" style="enable-background:new 0 0 378 128;" xml:space="preserve">
<style type="text/css">
	.st0{fill-rule:evenodd;clip-rule:evenodd;fill:none;stroke:#FFFFFF;stroke-miterlimit:10;}
	.st1{fill-rule:evenodd;clip-rule:evenodd;fill:none;}
	.st2{fill:#FFFFFF;}
</style>
<path id="XMLID_3_" class="st0" d="M17.9,81l0.1-33.8c0-1,3-1.7,5-1.7l0.4-3.2v9.5l0.7-0.1l0.2-1.5l0.2,1.5l1.4-1.8v-1.1h0.9v-1.4
	H26v-0.9h0.9l1.1-1.1H28l1.1,1.1H30v0.9h-0.7v1.4h0.9v2.3H31v-0.5h1.3v1.3h0.4V43l0-1.3c-0.4-0.2-0.7,0-0.8-0.8c0-0.5,0.4-0.5,1-0.5
	v-0.9h0.4v-0.4h-0.4v-0.6h4.1v0.6h-0.3v0.4h0.3v0.9c0.6,0,1,0,1,0.5c0,0.8-0.4,0.6-0.8,0.8l0,1.3v9.2h1.1v0.6h-0.2v0.7h1.4h0h1.4
	v-0.7h-0.2v-0.6h1.6v0.6h-0.2v0.7l0.5,6.6v2.2h0.7V43.4h0.7v-0.8l0.5-0.6v-1.7h0.8v-1.8H46v-2.9l0.4-0.5c-0.6-0.2-1.1-1.1-1-1.8
	c0.1-0.3,0.2-1,1.3-1.9l0.3-1.2c-0.3-0.2-0.5-0.4-0.5-0.9c0-0.8,0.9-0.3,1.1-1.9c0.2,1.5,1.1,1.1,1.1,1.9c0,0.5-0.2,0.8-0.5,0.9
	l0.3,1.2c1,0.9,1.2,1.6,1.3,1.9c0.1,0.7-0.4,1.6-1,1.8l0.4,0.5v2.9h0.7v1.8h0.8V42l0.5,0.6v0.8h0.7v18.8h0.7v8.5l1.8-6.5v-7.6
	l-1.8-3.5h10.4l-1.8,3.5v7.6l2.1,7.5c0-11.4,0-29.4,0-29.8c0.2,0,0.6-0.1,0.9-0.1c-0.3-0.8-0.4-1.1-0.2-1.8c0,0.6,0.3,0.3,0.5,0.8
	c0.1-0.5,1.4-1.5,1.7,0v-5.7h0.5v-0.5h0.5v-0.5h0.5l0.8-1.1h2.3l0.8,1.1H72v0.5h0.5v0.5H73v5.7c0.4-1.5,1.7-0.5,1.7,0
	c0.2-0.5,0.5-0.2,0.5-0.8c0.2,0.8,0.2,1-0.2,1.8c0.3,0,0.7,0.1,0.9,0.1c0,0.1,0,1.5,0,3.8h0.7v-0.5h0.6c0-0.2,0-0.4,0-0.6
	c0.2,0,0.4-0.1,0.6,0c0.5-1.1,0.4-2.4,1.6-2.9c-0.1-0.1-0.2-0.1-0.4-0.2c0-0.2,0.2-0.4,0.2-0.6c0.4,0,0.9-0.3,1.4-0.2
	c-0.1-1-1-0.3-1-1.2c0.3,0,0.8-0.1,1.1,0l0.8-9.6l0.8,9.6c0.3-0.1,0.8,0,1.1,0c-0.1,1-1,0.3-1,1.2c0.5-0.1,0.9,0.2,1.4,0.2
	c-0.1,0.2,0.1,0.4,0.2,0.6c-0.1,0.1-0.2,0.1-0.4,0.2c1.3,0.5,1.1,1.8,1.6,2.9c0.2-0.1,0.4,0,0.6,0c0,0.2,0,0.4,0,0.6h0.6v0.5h0.9
	v11.6h0.1v-1h0.8v-0.8h1v-0.9H90l1.3,1.3h1v-8.6h0.6v-1h0.3V45h0.6v-6.2c-0.3-0.4,0.1-3.2,0-3.7c-0.1-0.7-0.5-0.5-0.7-1
	c-0.5-1.1,0.7-1.6,1.9-1.5c0.2,0,0.4-0.1,0.5,0c0-0.5,0.1-0.6,0.6-0.6c0-1.3,0.1,0.1,0.1-1.1h-0.5v-0.5h3.3v0.5h-0.5
	c-0.1,1.3,0.1-0.1,0.1,1.1c0.4-0.1,0.6,0.1,0.6,0.6c0.2,0,0.4,0.1,0.5,0c1.1-0.1,2.3,0.4,1.9,1.5c-0.2,0.5-0.6,0.3-0.7,1
	c-0.1,0.5,0.3,3.3,0,3.7V45h0.6v1.4h0.3v1h0.5v2.6c1.6-2.5,3.9-4.6,5.4-7.5V61h0.7v-0.5h-0.5v-1h0.5v-1.1h-0.5v-1h0.5v-1h-0.5v-1.2
	h0.5v-1.1h-0.5v-1.1c0,0,0,0,0.5,0v-1.3l4.2-3.4v2.3h-0.5v2.2h1.8v-5.7h0.4v-3.3h0.4v-4.9l0.2-0.2v-9h1.1l0.2-12.2l0.2,12.2h1.1v9
	l0.2,0.2v4.9h0.3v3.3h0.4v5.4h0.2l0.4-2.7l0.2,2.7l1.1-1.1v0.9l0.6-0.6v0.6l0.7,0.7l0.8-0.8v-2.4h0.7v-1.6h0.3l-0.7-1.2l0.4-1.6
	l1.6-1.2h0.2l1.6,1.2l0.4,1.6l-0.2,0.4h0.3l0.5-6.9l0.3,6.9h0.8v11.2l2.4-2.1l2.4,2.1V47.6h0.8l0.3-6.9l0.5,6.9h0.8V68l0.3-0.3
	c0-1.6,1.1-3,2.5-3c0.9,0,1.7,0.6,2.1,1.4v-0.5h0.7v-0.9l1.2-0.4v-0.6h0.4v-7.6l1.2-1.4v-6.6h-0.4v-0.6h0.4l1.7-1.4l1.7,1.4h0.4v0.6
	H147v15.4h0.2l0.6-4.3c-0.6,0-0.7-0.5-0.7-1.1v-0.9c0-0.6,0-1.1,0.7-1.1l0.5,0l0.6-4.5c-0.4-0.1-0.6-0.4-0.6-0.8
	c0-0.4,0.4-0.8,0.8-0.8l0.2-1.3h0l0.2,1.3c0.4,0,0.8,0.4,0.8,0.8c0,0.4-0.3,0.7-0.6,0.8l0.6,4.5l0.5,0c0.6,0,0.7,0.5,0.7,1.1v0.9
	c0,0.6-0.1,1.1-0.7,1.1l0.7,5.2V47.1h1v-0.8h1.2v-1h0.6v2.7h0.6v-0.8h0.6v1.3h1v-2.3l0.9-0.9v-0.9h0.7v1.9h0.8v1.3l0.6-0.6v-1h0.8
	v2.1h0.2v-6.6l1.2-1.2v-8.5v-0.4c0-1.2,2.8-2.1,6.2-2.1V28h0.8v24.9h0.6V66h1.6v-2h1.2l1.7-1.7v-6.4h1.2l0.9-0.9h0.9l1.7,1.7v-2h1.2
	v-1.7l0.9-0.9l1.3,1.3h1.3l0.3-3.9l0.2,1.2h0.3v-1.1l0.3-0.3v-1.2h0.3v-1h0.3v-0.9h0.4l1.2-1.6l0.9-4.1l-0.5-0.5l0.5-0.5l0.3-2.5
	l0.3,2.5l0.5,0.5l-0.5,0.5l0.9,4.1l1.2,1.6h0.4v0.9h0.3v1h0.3v1.2l0.3,0.3v1.1h0.4v0.2l0.8-0.3l0.2-2.1l0.8,3.1h0.8V50h0.4v-8.7
	h-0.8l8.7-3.1v13.9h0.4v0.6h-0.4v6h0.4v0.7h-0.4v12.7h0.4v0.6h0.6v0.4h2.8V61.8h0.5V23.3h0.3v-4.1h0.4v-1.8l5.8,2v21.8h0.3v1.3
	l0-0.9l0.2,5.3l0.3-3.8l0.1,3.3h1.3l0.3-0.8l0.3,0.8l0.3-4l0.2,3.9h0V33.8h5.1l0.2-8.8l0.6,8.8h1.3V71l0.2-0.2v-1.4h0.4v1.3l1.3-1.3
	l2,2V42.6v-0.8h0.6v-0.7h0.6l0.5-0.5l0.8-1.3l1-0.5l0.8-0.4h0.9l1,1.4v3.7l2.3,1.4v8.8l1.2-5.2V34.9l2.1-1h3.1l0.4-6.5l0.6,6.4v22.6
	l1.2,4.4l0.2-17.3c0-0.8,1.3-1.3,2.8-1.3l0.3-9.5l0.2,9.5h1.2h1.2l0.2-9.5l0.3,9.5c1.5,0,2.8,0.6,2.8,1.3l0.2,20h0.4V38.6l8.7-4.3
	v29.6h0.3V41h1.1v-2l0.6-1.4l0.4,1.3v1h1.4v-2.3l0.7-0.7v-1.3h0.9v-1.1h1v2.4h0.7v0.9L271,37l0.1,1.9l0.1,1l0.2,0.2v-2.4l0.8-2.1
	v-9.1l2.4-13.8l2.4,13.8v9.1l0.8,2.1v29.5l0.2-0.6c0-2.5,0.1-3.4,1-3.4V37.6l0.2-0.3l0.5-11.8h3.7l0.2-2.2l0.1,2.1l0.5,11.9l0.2,0.3
	v25.6c0.8,0,1.3,0.8,1.3,3.4l0.9,1.7l0.2-0.3v1.8l0.3,0.7V56.8l0.9-1.5v-5.4l2-4.7l1.7,3.9l1.3-1.6l0.8-7.4l0.8,7.4l2.1,2.6v1.6
	l-0.9,1.4l1.4,1.4v1.5h0.8v-3.8l1.3-1.3V48h4.9v13.3h1.8v1.6h0.8v1.2h0.8v1h0.8v6.6c0.6-0.3,1.8-0.6,3.4-0.8v-7h2.5v5.5h1.2v1.4
	c0.3,0,0.6,0,0.9,0v-7.7h3.1v8.1c0.7,0.2,1.2,0.4,1.4,0.6V54.2h0.5v-0.6l0.6-0.6v-1h1.5l0.9-0.9V49h0.8v0.4h0.1v-0.7h0.5l0.8-0.8
	c0-0.9,0.7-1.7,1.7-1.7h0.6l0.3-1.9c-0.4-0.2-0.6-0.5-0.6-1c0-0.4,0.3-0.8,0.6-1l0.2-2.4l0.2,2.4c0.4,0.2,0.6,0.5,0.6,1
	c0,0.4-0.3,0.8-0.6,1l0.3,1.9h0.6c0.9,0,1.7,0.7,1.7,1.7l0.8,0.8h0.5v0.7h0.5v6h0.1v-4.5h0.6V49h0.7v-1.4l0.5-0.6v-2.8l1.3-3.7h0
	l1.3,3.7v2.8l0.6,0.6V49h0.7v1.8h0.6v0.6h1.7v-3.3l4.3-3.2l4.2,3.2v3.3h2.9V52h-1.6v1.3c0.5,0,0.5,0,0.5,0v1.1h-0.5v1.1h0.5v1.2
	h-0.5v1h0.5v1h-0.5v1.1h0.5v1h-0.5v1c0.5,0,0.5,0,0.5,0v1.1h-0.5v1.1h0.5v1.2h-0.5v1h0.5v1h-0.5v0.7h0.9v-2.3h0.4v0.2l0.4,0
	c0-0.9,0.7-1.6,1.6-1.6h0c0.9,0,1.6,0.7,1.6,1.6l0.4,0v-0.2h0.4v2.3h1.2V81"/>
<g id="XMLID_4_">
	<rect id="XMLID_85_" x="7" y="78" class="st1" width="514.5" height="118"/>
	<path id="XMLID_58_" class="st2" d="M32.4,78l9.9,35.8H30.3l-1.6-5.9l-9.2-0.1l-1.7,5.9H7L17.2,78H32.4z M21.3,100h5.6l-3.1-10
		L21.3,100z"/>
	<path id="XMLID_61_" class="st2" d="M67.8,78l9.9,35.8H65.7l-1.6-5.9l-9.2-0.1l-1.7,5.9H42.4L52.6,78H67.8z M56.7,100h5.6l-3.1-10
		L56.7,100z"/>
	<path id="XMLID_64_" class="st2" d="M80.2,113.8V78H91c3.7,0,6.2,0.1,7.5,0.4s2.4,0.8,3.3,1.7s1.7,2.1,2.3,3.6s0.9,3.1,0.9,4.8
		c0,4.9-1.5,8.1-4.5,9.7l6.5,15.6H95.7v-0.3l-4.6-12.9H91v13.2H80.2z M91.2,85.4H91v6.9h0.3c1,0,1.8-0.3,2.3-0.8s0.7-1.5,0.7-2.7
		C94.2,86.5,93.2,85.4,91.2,85.4z"/>
	<path id="XMLID_67_" class="st2" d="M120.2,100.5v13.3h-10.8V78h10.8v13.1h5.5V78h10.7v35.8h-10.7v-13.3H120.2z"/>
	<path id="XMLID_69_" class="st2" d="M154.3,78h10.8v13.3c0,3.9-0.1,6.7-0.2,8.4s-0.6,3.6-1.2,5.4s-1.5,3.5-2.6,4.9
		s-2.3,2.4-3.7,3.2s-2.8,1.1-4.3,1.1c-1.9,0-3.7-0.6-5.4-1.7s-3.1-2.7-4.1-4.7s-1.7-4.1-2-6.3s-0.5-5.7-0.5-10.2V78h10.8v16.6
		c0,1.5,0.1,2.5,0.3,3.1s0.5,0.9,1,0.9c0.6,0,1-0.4,1.1-1.1s0.3-2.2,0.3-4.5V78z"/>
	<path id="XMLID_71_" class="st2" d="M186.9,85.4c-0.7-0.4-1.3-0.7-1.8-0.9s-1-0.2-1.5-0.1s-0.8,0.2-1.1,0.4s-0.5,0.4-0.7,0.6
		s-0.3,0.4-0.3,0.5s-0.1,0.3-0.2,0.4s-0.1,0.4-0.1,0.6s0.1,0.5,0.2,0.8s0.4,0.6,0.8,0.9s0.9,0.6,1.6,0.9s1.6,0.6,2.6,0.9
		c1.5,0.4,2.7,0.9,3.8,1.5s1.9,1.2,2.6,1.9s1.3,1.5,1.7,2.3s0.7,1.6,0.9,2.5s0.3,1.7,0.4,2.6s0,1.7,0,2.5c-0.1,1.2-0.4,2.5-1.1,3.7
		s-1.6,2.4-2.8,3.4s-2.7,1.8-4.5,2.5s-3.8,1-6,1c-1.1,0-2.2-0.1-3.2-0.3s-1.9-0.5-2.8-0.8s-1.6-0.8-2.4-1.2s-1.4-0.9-1.9-1.4
		c-1.4-1.1-2.5-2.3-3.5-3.7l6.2-5c0.5,0.7,1.2,1.3,1.9,1.9s1.4,1.1,2.1,1.5s1.4,0.7,2.1,0.9s1.3,0.3,1.9,0.3s1.1-0.2,1.5-0.5
		s0.7-0.7,0.8-1.3c0-0.1,0-0.2,0-0.5s-0.1-0.5-0.2-0.8s-0.4-0.6-0.7-0.9s-0.7-0.5-1.3-0.6c-1.3-0.3-2.5-0.7-3.7-1.1
		s-2.2-0.8-3.1-1.3s-1.8-1.1-2.6-1.7s-1.4-1.4-2-2.2c-0.6-0.9-1.1-1.9-1.3-2.9s-0.4-2-0.4-3.1s0.2-2.1,0.5-3.1s0.7-1.9,1.2-2.8
		s1.1-1.7,1.8-2.4s1.5-1.3,2.3-1.8c1.3-0.7,2.5-1.2,3.7-1.5s2.4-0.5,3.5-0.5s2.2,0.1,3.2,0.2s2,0.4,2.9,0.8c2.1,0.7,4,1.8,5.8,3.2
		l-4.5,5.6C188.3,86.5,187.6,85.8,186.9,85.4z"/>
	<path id="XMLID_73_" class="st2" d="M225.4,104.8h9.4v9h-20.2V78h20.2v9h-9.4v4.4h6.6v9h-6.6V104.8z"/>
	<path id="XMLID_75_" class="st2" d="M263,78l-8.1,35.8h-10.4L236.1,78h10.8l2.8,11.9l2.7-11.9H263z"/>
	<path id="XMLID_77_" class="st2" d="M276.4,104.8h9.4v9h-20.2V78h20.2v9h-9.4v4.4h6.6v9h-6.6V104.8z"/>
	<path id="XMLID_79_" class="st2" d="M299.9,102.9v10.9h-10.8V78h7.7l5.7,12V78h10.8v36h-8.2L299.9,102.9z"/>
	<path id="XMLID_81_" class="st2" d="M332.5,113.8h-10.8V92.5h-5.4V78h21.6v14.5h-5.4V113.8z"/>
	<path id="XMLID_83_" class="st2" d="M358.3,85.4c-0.7-0.4-1.3-0.7-1.8-0.9s-1-0.2-1.5-0.1s-0.8,0.2-1.1,0.4s-0.5,0.4-0.7,0.6
		s-0.3,0.4-0.3,0.5s-0.1,0.3-0.2,0.4s-0.1,0.4-0.1,0.6s0.1,0.5,0.2,0.8s0.4,0.6,0.8,0.9s0.9,0.6,1.6,0.9s1.6,0.6,2.6,0.9
		c1.5,0.4,2.7,0.9,3.8,1.5s1.9,1.2,2.6,1.9s1.3,1.5,1.7,2.3s0.7,1.6,0.9,2.5s0.3,1.7,0.4,2.6s0,1.7,0,2.5c-0.1,1.2-0.4,2.5-1.1,3.7
		s-1.6,2.4-2.8,3.4s-2.7,1.8-4.5,2.5s-3.8,1-6,1c-1.1,0-2.2-0.1-3.2-0.3s-1.9-0.5-2.8-0.8s-1.6-0.8-2.4-1.2s-1.4-0.9-1.9-1.4
		c-1.4-1.1-2.5-2.3-3.5-3.7l6.2-5c0.5,0.7,1.2,1.3,1.9,1.9s1.4,1.1,2.1,1.5s1.4,0.7,2.1,0.9s1.3,0.3,1.9,0.3s1.1-0.2,1.5-0.5
		s0.7-0.7,0.8-1.3c0-0.1,0-0.2,0-0.5s-0.1-0.5-0.2-0.8s-0.4-0.6-0.7-0.9s-0.7-0.5-1.3-0.6c-1.3-0.3-2.5-0.7-3.7-1.1
		s-2.2-0.8-3.1-1.3s-1.8-1.1-2.6-1.7s-1.4-1.4-2-2.2c-0.6-0.9-1.1-1.9-1.3-2.9s-0.4-2-0.4-3.1s0.2-2.1,0.5-3.1s0.7-1.9,1.2-2.8
		s1.1-1.7,1.8-2.4s1.5-1.3,2.3-1.8c1.3-0.7,2.5-1.2,3.7-1.5s2.4-0.5,3.5-0.5s2.2,0.1,3.2,0.2s2,0.4,2.9,0.8c2.1,0.7,4,1.8,5.8,3.2
		l-4.5,5.6C359.7,86.5,359,85.8,358.3,85.4z"/>
</g>
<g id="XMLID_2_">
</g>
<g id="XMLID_57_">
</g>
<g id="XMLID_86_">
</g>
<g id="XMLID_87_">
</g>
<g id="XMLID_88_">
</g>
<g id="XMLID_89_">
</g>
<g id="XMLID_90_">
</g>
<g id="XMLID_91_">
</g>
<g id="XMLID_92_">
</g>
<g id="XMLID_93_">
</g>
<g id="XMLID_94_">
</g>
<g id="XMLID_95_">
</g>
<g id="XMLID_96_">
</g>
<g id="XMLID_97_">
</g>
<g id="XMLID_98_">
</g>
</svg>
